<?xml version="1.0" encoding="utf-8"?>
<!-- Generator: Adobe Illustrator 28.2.0, SVG Export Plug-In . SVG Version: 6.00 Build 0)  -->
<svg version="1.1" id="Ebene_1" xmlns="http://www.w3.org/2000/svg" xmlns:xlink="http://www.w3.org/1999/xlink" x="0px" y="0px"
	 viewBox="0 0 226.8 134.5" style="enable-background:new 0 0 226.8 134.5;" xml:space="preserve">
<g>
	<path d="M12.7,94.7c0,0.8,0,1.6,0,2.4c-0.7,1-0.3,2.2-0.3,3.3c-0.3,5.2,0.7,10.3,0.7,15.5c-0.2,2.3,2.4,3.6,1.8,6
		c1.2,6.2-5,12.2-10.9,8.7c-0.8-0.4-1.4-1-1.8-1.9c-1.3-2.9-1.9-5.9-1.2-9c-0.3-5.1-0.9-10.2-0.7-15.4c0-5.6-0.3-11-0.4-16.5
		C1.4,80.3,0.5,72.5,1,65C0.8,58.7,1,52.4,1,46c0.3-4-1.9-9.3,2-12.1c3.8-2.6,11.1-1.5,11.8,3.7c0.3,4.1-2,8.1-1.4,12.3
		c0.3,3.6-0.9,7.2-0.5,10.9c0.5,5.8,0,10.8,0,17c0,0.6,0.1,0.9,0.8,1.1c8.3,2.3,17,1.3,25.6,1.3c1.4-0.3,5,0.7,4.9-1.5
		c-0.5-5.3,0.1-10.7-0.3-16c-0.3-7.3-0.2-14.6-1.1-21.8c-0.5-7.8,8.2-7.9,13-4.2c0.3,0.2,0.6,0.7,0.6,1c0.5,2.7,2.5,4.8,2.9,7.6
		c0.2,0.7,1.1,1.3,1.4,2.1c0.2,0.5,0.3,1,0.8,1.3c1.6,2.8,2.5,6.2,4.3,9c0.4,0.7,0.5,1.7,1.3,2.1c2.8,3.6,5,7.8,6.7,12
		c0.9,2.3,3,5.8,3.3,8.2c0,0.6,0.2,0.7,0.9,0.8c8.8,1.8,17.6,0.4,26.5,0.2c1.1-0.3,2.9,0.3,3.4-0.8c0.8-2.3,1.5-4.6,2.4-6.8
		c1.5-4.2,3.7-8.1,5.7-12.1c1.2-2.8,2.2-5.7,4-8.1c0.6-1.5,2-2.8,2.5-4.3c0.3-1.4,0.9-2.9,1.7-4.1c1.2-2.3,3-4.2,4.1-6.6
		c1.4-3.3,5.5-2.8,8.4-2.6c3.8,1.7,3.2,6,2.7,9.4c0.1,1.5,0,3-0.5,4.5c-0.1,2.1,1.7-1.3,2.3-1.8c2.1-1.9,3.8-4.5,6.6-5.4
		c1.3-0.5,2.7-0.9,4-1.5c0.5-0.5,1.1-0.5,1.8-0.5c3.7-0.3,7.3,0.4,11,0.8c0.5,0,1,0.1,1.4,0.5c0.5,0.4,1.1,0.9,1.8,0.8
		c1.6,0,2.8,1.4,4.2,2c1.7,0.3,2.4,1.8,3.4,3c3.3,2.8,4.8,6.7,6,10.7c1.3,2.7,1.8,5.6,1.6,8.6c0.6,2.2-5.5,6.5-7.4,5.6
		c-1.6-0.6-2.8-1.7-3.4-3.4c-0.9-1.3-0.1-3.2-0.4-5c-0.1-2.3-1.2-4.4-1.7-6.7c-0.3-1.1-1.3-1.8-1.9-2.7c-1.1-1.8-3.3-2.3-5.1-3.1
		c-2.6-1-5.5-0.7-8.3-1.1c-3.8-0.3-5.6,3.3-7.9,5.7c-3.7,4.9-2.7,12.1,1.6,16.3c4.7,3.2,9.9,5.6,14.9,8.1c9.5,1.4,19.3-0.3,28.9,0.4
		c3.8,0.5,7.7-0.7,11.5-0.2c2.8,0.3,5.6-0.9,8.4-1.4c0.4-0.1,0.5-0.4,0.5-0.8c0.5-2,0-4-0.1-6c0.1-3.2,1-6.2,1.2-9.4
		c-0.5-3.7-0.2-7.6-0.1-11.3c-0.2-1-0.1-2-0.4-3c-1.1-3.1,0.7-6.6,3.5-7.9c1.4-0.6,3-0.5,4.4-0.3c1.8,0.3,2.4,2.4,3.2,3.8
		c1.5,4.4-2.3,9.2-0.2,13.6c0.8,1.7-0.2,3.3-0.6,5c-1.2,7.1-0.3,14.3-0.1,21.4c-0.2,2.4,0.3,4.6,0.8,6.9c0.3,3.4,0.2,6.8,0.9,10.2
		c0.1,4.4,0,9.6,0.6,14.1c0.4,5.3,3,11.8-1.1,16.1c-2.4,1.2-3.8,4-6.9,2.9c-3.1-2.2-3.5-6.3-2.7-9.8c0.2-4.5-0.6-8.8-0.5-13.6
		c-0.6-2.4,0.6-4.9-0.3-7.4c-0.9-3.6,0.6-7.4-0.8-11c-0.1-0.5-0.3-0.7-0.8-0.7c-11.6-0.4-23.5-1-35-0.1c-0.6,0.1-0.3,0.7-0.1,1
		c2.4,3,3.4,7.4,3.4,11.2c0.7,3.6,0.8,7.3,0.4,10.9c-0.1,2.4-2.1,4.3-3,6.4c-0.8,1.2-2.1,2-2.7,3.3c-0.4,0.8-1.1,1.3-1.9,1.7
		c-2.6,1.7-5.2,3.9-8.6,3.9c-1.9,0.5-3.6,2-5.7,1.6c-1.6-0.2-3.3,0.3-4.9,0c-5.8,0.2-9.9-3.2-14.7-5.8c-0.5-0.2-0.8,0-0.8,0.5
		c0.1,2.1-1.9,3.3-3.4,4.4c-3.7,2.8-6.7,1.3-9.1-2.3c-1.1-1.8-0.3-3.7-0.2-5.6c-0.2-6.1-0.8-12.2-0.3-18.3c-0.1-4.2,0-8.4,0.2-12.6
		c0-0.6-0.1-0.7-0.7-0.8c-3.1-0.4-6.2-0.2-9.3-0.1c-2.4-0.1-2.1,1.7-2.8,3.2c-0.8,2-1.5,4.1-3.2,5.5c-0.2,0.9-0.8,1.5-1.3,2.2
		c-1.8,2.9-3.3,6-4.8,9.1c-3.6,5.8-3.9,13.4-8.4,18.7c-1.2,1.6-3.7,2.3-5.6,2.3c-4-0.8-5-5.2-6.6-8.4c-2-5.9-6-11-7.9-17.1
		c-0.8-3-2.3-5.6-3.4-8.5c-0.1-1.1-1.2-1.7-1.4-2.5c-0.1-1.2-0.9-2.1-1.2-3.2c0-0.1-0.1-0.2-0.3-0.3c-2.4-0.9-5-0.6-7.4-0.5
		c-1.9-0.2-3.8,0.1-5.7-0.3c-0.5-0.1-0.7,0-0.7,0.6c-0.5,8.5-0.7,17.1-0.7,25.5c-0.2,2,1.3,3.4,1.9,5.1c0.4,1.1,0.4,2.1-0.2,3.1
		c-1.1,3.2-3.6,5.7-7.2,5.8c-2.1,0.5-4.1-0.7-5.4-2.2c-2.8-4.5,0-10.1-0.4-15.1c0.6-7.2-0.3-14.4,0.5-21.5c-0.4-2.1-4.6-0.8-6.3-1.1
		c-4.7-0.1-9.4-0.3-14.2,0c-3.5-0.1-7-1.2-10.3,0.2C12.1,92.2,13,93.9,12.7,94.7z M136.7,107.4c0.3,2-0.5,6.1,3,4.6
		c3.4-1.1,4.6,2.7,6.3,4.7c1.3,1.4,2.9,2.2,4.5,3.2c1.1,0.9,2.3,1.7,3.9,1.5c3.4,0.6,6.7,0.2,10-0.9c1.1-0.3,1.7-1.4,2.8-1.6
		c1.5-1.9,3.9-3.5,4.2-6.1c0.1-3.5-0.5-7-0.9-10.5c-0.2-1.2-1-2-1.7-2.9c-2.1-2.6-4.6-5.1-7.3-7c-1.1-0.3-1.9-1.5-3.1-1.5
		c-4-0.2-8.1,0.5-12.1,0.3c-2.9-0.1-5.8-0.1-8.7,0.1c-0.9,0-0.4,1.5-0.6,2C136.9,98,136.1,102.7,136.7,107.4z M85.7,91.8
		c-0.8-0.2-2.1,0.2-3,0.2c-0.6,0.1-0.7,0.2-0.5,0.7c0.7,2.1,1.1,2.9,2.2,4.8c0.2,1.4,0.9,2.6,1.4,3.9c0.4,1.6,0.9,3.1,2.2,4.1
		c0.6,1.6,1.7,2.9,2.3,4.5c0.4,1.2,1.5-0.1,1.8-0.8c0.8-1.7,1.9-3.3,3.1-4.8c1.3-1.3,1.3-2.4,2.2-3.6c2.1-2.4,3.5-5.3,4.5-8.2
		c0.3-1.1,0.4-1.1-0.8-1.2C96,91.2,90.8,91.3,85.7,91.8z M55.6,78.1c-0.9,1.8,2.6,1.6,3.8,1.9c1.4,0.2,2.8,0,4,0.5
		c1.1,0.4,1.8-0.2,1.1-1.2c-2.1-3.9-4.5-8.8-6.7-12.4c-0.8-1.1-1.4-2.5-2.5-3.3C54.9,68.4,55.5,73.3,55.6,78.1z M121.9,81.2
		c6,0.5,2.9-3.4,3.7-7.3c0.1-1.4,0-3.1-1.2-4.1c-1.8,3.3-3.7,6.8-5.1,10.4C118.8,81.5,121.3,81,121.9,81.2z M139.6,80.9
		c0.5-0.2,2.9,0.5,1.5-0.8c-1.9-1.2-2.4-3.7-4.3-4.8c-0.3,1.4,0,2.9,0,4.3C136.8,81.1,138.6,80.7,139.6,80.9z"/>
	<path d="M142.9,8.9c1.3,6.2-5.3,9.3-10.4,9.8c-2.5,0.4-5-1.5-6.7-3.2c-1.6-2-1.7-4.9-1.5-7.4c0.2-3.6,3.5-5.7,6.4-7.1
		c1.3-1.4,3-1,4.6-1C139.4-0.6,143.5,5.3,142.9,8.9z"/>
</g>
</svg>
